#define down_width 6
#define down_height 16
static unsigned char down_bits[] = {
   0x00, 0x00, 0x00, 0x00, 0x00, 0x00, 0x00, 0x1f, 0x0e, 0x04, 0x00, 0x00,
   0x00, 0x00, 0x00, 0x00 };
