#define imgrid_width 12
#define imgrid_height 12
static unsigned char imgrid_bits[] = {
   0x00, 0x00, 0x00, 0x00, 0x76, 0x07, 0x76, 0x07, 0x06, 0x00, 0x76, 0x07,
   0x76, 0x07, 0x06, 0x00, 0x76, 0x07, 0x76, 0x07, 0x00, 0x00, 0x00, 0x00 };
