#define sep_width 6
#define sep_height 16
static unsigned char sep_bits[] = {
   0x00, 0x00, 0x00, 0x00, 0x00, 0x00, 0x00, 0x0c, 0x0c, 0x00, 0x00, 0x00,
   0x00, 0x00, 0x00, 0x00 };
