#define vid_width 8
#define vid_height 8
static unsigned char vid_bits[] = {
   0xff, 0xff, 0xcf, 0x86, 0x30, 0x79, 0xff, 0xff };
