#define xkl_width 8
#define xkl_height 8
static unsigned char xkl_bits[] = {
   0x66, 0xe7, 0xe7, 0x18, 0x18, 0xe7, 0xe7, 0x66 };
